<svg viewBox="0 0 364 209" fill="none" xmlns="http://www.w3.org/2000/svg">
  <g>
    <path d="M319.744 0.536907L40.0102 44.9256C30.9863 46.3576 24.8274 54.834 26.254 63.8582L26.2541 63.8588C27.6807 72.8831 36.1526 79.0378 45.1766 77.6059L324.91 33.2172C333.934 31.7852 340.093 23.3088 338.666 14.2846L338.666 14.284C337.24 5.25973 328.768 -0.895035 319.744 0.536907Z" fill="#F1F7FE"/>
    <path d="M324.919 33.2536L45.186 77.6423C36.1621 79.0742 30.0032 87.5506 31.4298 96.5749L31.4299 96.5755C32.8565 105.6 41.3284 111.754 50.3524 110.323L330.086 65.9339C339.11 64.5019 345.269 56.0255 343.842 47.0013L343.842 47.0006C342.415 37.9764 333.943 31.8216 324.919 33.2536Z" fill="#F1F7FE"/>
    <path d="M330.095 65.9697L50.3617 110.358C41.3377 111.79 35.1788 120.267 36.6055 129.291L36.6056 129.292C38.0322 138.316 46.5041 144.471 55.528 143.039L335.261 98.6499C344.285 97.218 350.444 88.7416 349.018 79.7174L349.018 79.7167C347.591 70.6925 339.119 64.5377 330.095 65.9697Z" fill="#F1F7FE"/>
    <path d="M265.339 109.776L55.5375 143.071C46.5134 144.503 40.3545 152.98 41.7811 162.006L41.7812 162.006C43.2079 171.032 51.6798 177.187 60.7039 175.755L270.506 142.46C279.53 141.028 285.689 132.55 284.262 123.525L284.262 123.524C282.835 114.499 274.363 108.344 265.339 109.776Z" fill="#F1F7FE"/>
    <path d="M340.447 131.403L60.7131 175.792C51.6892 177.224 45.5303 185.7 46.9569 194.724L46.957 194.725C48.3836 203.749 56.8555 209.904 65.8795 208.472L345.613 164.083C354.637 162.651 360.796 154.175 359.369 145.151L359.369 145.15C357.942 136.126 349.471 129.971 340.447 131.403Z" fill="#F1F7FE"/>
    <path d="M70.1213 140.642L14.5628 149.461C5.53827 150.894 -0.620881 159.375 0.80599 168.405L0.806093 168.406C2.23296 177.435 10.7055 183.594 19.7301 182.161L75.2886 173.341C84.3131 171.909 90.4723 163.427 89.0454 154.398L89.0453 154.397C87.6184 145.368 79.1459 139.209 70.1213 140.642Z" fill="white"/>
    <path d="M319.145 101.154L263.587 109.974C254.562 111.406 248.403 119.888 249.83 128.917L249.83 128.918C251.257 137.947 259.729 144.106 268.754 142.673L324.312 133.854C333.337 132.421 339.496 123.94 338.069 114.91L338.069 114.909C336.642 105.88 328.17 99.7213 319.145 101.154Z" fill="white"/>
    <path d="M85.7056 69.757L30.1472 78.5768C21.1226 80.0095 14.9635 88.4908 16.3903 97.5203L16.3904 97.521C17.8173 106.551 26.2899 112.709 35.3144 111.276L90.8729 102.457C99.8975 101.024 106.057 92.5427 104.63 83.5132L104.63 83.5125C103.203 74.4829 94.7302 68.3244 85.7056 69.757Z" fill="white"/>
    <path d="M344.722 30.0173L289.164 38.8371C280.139 40.2697 273.98 48.751 275.407 57.7806L275.407 57.7812C276.834 66.8108 285.306 72.9694 294.331 71.5367L349.89 62.7169C358.914 61.2843 365.073 52.803 363.646 43.7734L363.646 43.7728C362.219 34.7432 353.747 28.5846 344.722 30.0173Z" fill="white"/>
    <g>
      <path d="M180.127 26.4208C146.875 27.5476 121 60.0813 121 97.955V169.334C121 176.929 126.473 183.108 133.2 183.108C139.927 183.108 145.4 176.929 145.4 169.334C145.4 166.802 147.224 164.743 149.466 164.743C151.709 164.743 153.534 166.802 153.534 169.334C153.534 176.929 159.006 183.108 165.734 183.108C168.992 183.108 172.056 181.676 174.36 179.074C176.665 176.473 177.934 173.013 177.933 169.334C177.933 166.796 179.752 164.743 182 164.743C184.243 164.743 186.066 166.802 186.066 169.334C186.066 176.929 191.539 183.108 198.266 183.108C204.994 183.108 210.466 176.929 210.466 169.334C210.466 166.802 212.291 164.743 214.534 164.743C216.777 164.743 218.6 166.802 218.6 169.334C218.6 176.929 224.073 183.108 230.8 183.108C237.527 183.108 243 176.929 243 169.334V95.2598C243 56.8639 215.015 25.2398 180.127 26.4208V26.4208Z" fill="#E0E4E8"/>
      <path d="M225.638 181.814C229.793 179.615 232.677 174.848 232.677 169.334V95.2597C232.677 60.0026 209.081 30.4561 178.21 26.7745C178.827 26.5565 179.473 26.4371 180.127 26.4207C215.016 25.2397 243 56.8638 243 95.2597V169.334C243 176.929 237.527 183.108 230.8 183.108C228.956 183.108 227.207 182.643 225.638 181.813V181.814Z" fill="black" fill-opacity="0.1"/>
      <path d="M183.877 117.166C188.542 117.166 192.323 112.976 192.323 107.807C192.323 102.639 188.542 98.449 183.877 98.449C179.212 98.449 175.431 102.639 175.431 107.807C175.431 112.976 179.212 117.166 183.877 117.166Z" fill="black"/>
      <g opacity="0.2">
        <path opacity="0.2" d="M155.723 99.3849C157.278 99.3849 158.538 98.1279 158.538 96.5774C158.538 95.0268 157.278 93.7698 155.723 93.7698C154.168 93.7698 152.908 95.0268 152.908 96.5774C152.908 98.1279 154.168 99.3849 155.723 99.3849Z" fill="black"/>
        <path opacity="0.2" d="M212.031 99.3849C213.586 99.3849 214.846 98.1279 214.846 96.5774C214.846 95.0268 213.586 93.7698 212.031 93.7698C210.476 93.7698 209.215 95.0268 209.215 96.5774C209.215 98.1279 210.476 99.3849 212.031 99.3849Z" fill="black"/>
      </g>
      <path d="M159.946 90.0264C162.279 90.0264 164.169 88.141 164.169 85.8151C164.169 83.4893 162.279 81.6038 159.946 81.6038C157.614 81.6038 155.723 83.4893 155.723 85.8151C155.723 88.141 157.614 90.0264 159.946 90.0264Z" fill="black"/>
      <path d="M208.746 90.0264C211.078 90.0264 212.969 88.141 212.969 85.8151C212.969 83.4893 211.078 81.6038 208.746 81.6038C206.414 81.6038 204.523 83.4893 204.523 85.8151C204.523 88.141 206.414 90.0264 208.746 90.0264Z" fill="black"/>
    </g>
  </g>
</svg>
