<svg viewBox="0 0 272 201" fill="none" xmlns="http://www.w3.org/2000/svg">
<g clip-path="url(#clip0)">
<path d="M272 74.2883H157.668V77.6458H272V74.2883Z" fill="#E6E6E6"/>
<path d="M196.084 46.208H167.12V75.2039H196.084V46.208Z" fill="#E6E6E6"/>
<path d="M190.291 52.0073H172.913V69.4048H190.291V52.0073Z" fill="#CCCCCC"/>
<path d="M239.377 46.208H232.06V75.2039H239.377V46.208Z" fill="#E6E6E6"/>
<path d="M239.377 50.7864H232.06V54.1438H239.377V50.7864Z" fill="#CCCCCC"/>
<path d="M239.377 65.4368H232.06V68.7942H239.377V65.4368Z" fill="#CCCCCC"/>
<path d="M228.097 46.208H220.779V75.2039H228.097V46.208Z" fill="#E6E6E6"/>
<path d="M228.097 50.7864H220.779V54.1438H228.097V50.7864Z" fill="#CCCCCC"/>
<path d="M228.097 65.4368H220.779V68.7942H228.097V65.4368Z" fill="#CCCCCC"/>
<path d="M245.682 46.0882L239.125 49.3384L251.976 75.3239L258.533 72.0737L245.682 46.0882Z" fill="#E6E6E6"/>
<path d="M247.711 50.191L241.154 53.4412L242.642 56.45L249.199 53.1998L247.711 50.191Z" fill="#CCCCCC"/>
<path d="M254.204 63.3206L247.647 66.5708L249.135 69.5797L255.692 66.3295L254.204 63.3206Z" fill="#CCCCCC"/>
<path d="M177.943 57.8469L181.628 64.2362L185.313 70.6255H177.943H170.573L174.258 64.2362L177.943 57.8469Z" fill="#E6E6E6"/>
<path d="M184.346 59.0679L188.03 65.4572L191.716 71.8465H184.346H176.976L180.661 65.4572L184.346 59.0679Z" fill="#E6E6E6"/>
<path d="M186.937 57.1959C188.116 57.1959 189.071 56.2394 189.071 55.0594C189.071 53.8794 188.116 52.9229 186.937 52.9229C185.759 52.9229 184.803 53.8794 184.803 55.0594C184.803 56.2394 185.759 57.1959 186.937 57.1959Z" fill="#E6E6E6"/>
<path d="M157.668 31.5576L272 31.5576V28.2002L157.668 28.2002V31.5576Z" fill="#E6E6E6"/>
<path d="M233.585 29.1157L262.549 29.1157V0.119873L233.585 0.119873V29.1157Z" fill="#E6E6E6"/>
<path d="M239.377 23.3167L256.756 23.3167V5.91914L239.377 5.91914V23.3167Z" fill="#CCCCCC"/>
<path d="M190.291 29.1157H197.608V0.119873H190.291V29.1157Z" fill="#E6E6E6"/>
<path d="M190.291 8.05566L197.608 8.05566V4.69825L190.291 4.69825V8.05566Z" fill="#CCCCCC"/>
<path d="M190.291 22.7061H197.608V19.3486H190.291V22.7061Z" fill="#CCCCCC"/>
<path d="M201.572 29.1157H208.889V0.119873H201.572V29.1157Z" fill="#E6E6E6"/>
<path d="M201.572 8.05566L208.889 8.05566V4.69825L201.572 4.69825V8.05566Z" fill="#CCCCCC"/>
<path d="M201.572 22.7061H208.889V19.3486H201.572V22.7061Z" fill="#CCCCCC"/>
<path d="M171.135 25.9854L177.693 29.2356L190.544 3.2501L183.986 -5.31378e-05L171.135 25.9854Z" fill="#E6E6E6"/>
<path d="M180.469 7.11191L187.027 10.3621L188.515 7.35321L181.957 4.10307L180.469 7.11191Z" fill="#CCCCCC"/>
<path d="M173.976 20.2413L180.534 23.4915L182.022 20.4826L175.464 17.2325L173.976 20.2413Z" fill="#CCCCCC"/>
<path d="M251.725 11.7588L248.04 18.1481L244.356 24.5374H251.725H259.095L255.41 18.1481L251.725 11.7588Z" fill="#E6E6E6"/>
<path d="M245.323 12.9797L241.638 19.369L237.953 25.7583H245.323H252.692L249.008 19.369L245.323 12.9797Z" fill="#E6E6E6"/>
<path d="M242.731 11.1078C243.91 11.1078 244.865 10.1512 244.865 8.97125C244.865 7.79128 243.91 6.83472 242.731 6.83472C241.552 6.83472 240.597 7.79128 240.597 8.97125C240.597 10.1512 241.552 11.1078 242.731 11.1078Z" fill="#E6E6E6"/>
<path d="M157.668 123.734L272 123.734V120.376L157.668 120.376V123.734Z" fill="#E6E6E6"/>
<path d="M233.585 121.292H262.549V92.2961H233.585V121.292Z" fill="#E6E6E6"/>
<path d="M239.377 115.493H256.756V98.0954H239.377V115.493Z" fill="#CCCCCC"/>
<path d="M190.291 121.292H197.608V92.2961H190.291V121.292Z" fill="#E6E6E6"/>
<path d="M190.291 100.232H197.608V96.8745H190.291V100.232Z" fill="#CCCCCC"/>
<path d="M190.291 114.882H197.608V111.525H190.291V114.882Z" fill="#CCCCCC"/>
<path d="M201.572 121.292H208.889V92.2961H201.572V121.292Z" fill="#E6E6E6"/>
<path d="M201.572 100.232H208.889V96.8745H201.572V100.232Z" fill="#CCCCCC"/>
<path d="M201.572 114.882H208.889V111.525H201.572V114.882Z" fill="#CCCCCC"/>
<path d="M171.135 118.162L177.693 121.412L190.544 95.4264L183.986 92.1762L171.135 118.162Z" fill="#E6E6E6"/>
<path d="M180.469 99.2882L187.027 102.538L188.515 99.5295L181.957 96.2793L180.469 99.2882Z" fill="#CCCCCC"/>
<path d="M173.976 112.418L180.534 115.668L182.022 112.659L175.464 109.409L173.976 112.418Z" fill="#CCCCCC"/>
<path d="M251.725 103.935L248.04 110.324L244.356 116.714H251.725H259.095L255.41 110.324L251.725 103.935Z" fill="#E6E6E6"/>
<path d="M245.323 105.156L241.638 111.545L237.953 117.935H245.323H252.692L249.008 111.545L245.323 105.156Z" fill="#E6E6E6"/>
<path d="M242.731 103.284C243.91 103.284 244.865 102.327 244.865 101.148C244.865 99.9675 243.91 99.011 242.731 99.011C241.552 99.011 240.597 99.9675 240.597 101.148C240.597 102.327 241.552 103.284 242.731 103.284Z" fill="#E6E6E6"/>
<path d="M134.683 200.624C209.066 200.624 269.366 196.337 269.366 191.048C269.366 185.759 209.066 181.472 134.683 181.472C60.2995 181.472 0 185.759 0 191.048C0 196.337 60.2995 200.624 134.683 200.624Z" fill="#E6E6E6"/>
<path d="M239.904 196.41C217.943 192.497 193.927 193.148 168.736 196.41C180.218 186.707 190.127 177.003 178.646 167.299C201.042 171.925 204.179 171.457 229.093 167.299C223.315 177.003 234.125 186.707 239.904 196.41Z" fill="#0B77D8"/>
<path opacity="0.2" d="M239.904 196.41C217.943 192.497 193.927 193.148 168.736 196.41C180.218 186.707 190.127 177.003 178.646 167.299C201.042 171.925 204.179 171.457 229.093 167.299C223.315 177.003 234.125 186.707 239.904 196.41Z" fill="black"/>
<path d="M234.547 192.271C215.892 189.147 195.492 189.667 174.093 192.271C183.846 184.525 192.264 176.779 182.51 169.034C201.536 172.726 204.2 172.352 225.364 169.034C220.455 176.779 229.638 184.525 234.547 192.271Z" fill="#0B77D8"/>
<path d="M227.441 179.791C232.931 179.791 237.381 175.335 237.381 169.84C237.381 164.344 232.931 159.889 227.441 159.889C221.952 159.889 217.502 164.344 217.502 169.84C217.502 175.335 221.952 179.791 227.441 179.791Z" fill="#2F2E41"/>
<path d="M182.319 158.298L189.206 159.447L192.65 169.406L182.702 175.535L171.223 158.298H181.936H182.319Z" fill="#A0616A"/>
<path d="M201.833 173.62C210.708 173.62 217.903 166.417 217.903 157.532C217.903 148.647 210.708 141.444 201.833 141.444C192.958 141.444 185.763 148.647 185.763 157.532C185.763 166.417 192.958 173.62 201.833 173.62Z" fill="#A0616A"/>
<path d="M113.065 98.9265C113.065 98.9265 74.0372 103.14 67.15 102.374C60.2628 101.608 57.2018 100.842 57.2018 100.842C57.2018 100.842 52.6104 106.97 54.9061 109.652C56.1918 111.197 57.7477 112.495 59.4976 113.482C59.4976 113.482 63.7064 112.333 66.7674 113.482C69.8284 114.631 100.821 119.611 106.177 115.014C111.534 110.418 113.065 98.9265 113.065 98.9265Z" fill="#2F2E41"/>
<path d="M115.743 184.345C115.743 184.345 90.1073 177.067 85.5159 144.892V141.827C85.5159 141.827 80.4436 150.735 78.6287 152.552C76.5243 154.659 69.0631 173.62 69.4458 175.535C69.8284 177.45 69.4458 178.216 69.4458 178.216L58.3497 177.067V173.62C58.3497 173.62 64.2804 155.808 64.663 151.595C65.0456 147.381 79.3939 118.079 79.3939 118.079C79.3939 118.079 84.7506 106.97 93.9335 118.079C103.116 129.187 103.882 136.848 103.882 136.848L115.743 159.83L115.743 184.345Z" fill="#2F2E41"/>
<path d="M58.3498 99.6924L46.1059 95.479C46.1059 95.479 34.6273 87.052 37.3056 95.479C39.984 103.906 52.2279 122.292 55.6715 120.377C59.1151 118.462 63.2565 113.708 62.3337 113.02C61.4108 112.333 55.2889 107.353 58.3498 99.6924Z" fill="#2F2E41"/>
<path d="M59.8297 171.358L49.9459 176.19C49.9459 176.19 37.9933 178.031 44.6592 181.483C51.325 184.935 69.7136 188.616 70.633 185.395C71.5524 182.173 71.1876 176.827 70.2207 176.969C69.2538 177.111 62.588 177.801 59.8297 171.358Z" fill="#2F2E41"/>
<path d="M110.769 159.064C110.769 159.064 105.795 180.514 114.213 185.111C122.63 189.707 181.554 190.473 186.145 182.047C190.737 173.62 188.441 173.62 188.441 173.62L176.197 159.83L186.145 159.064C186.145 159.064 186.145 156 182.702 155.617C179.258 155.234 168.545 151.403 159.362 154.085C150.179 156.766 144.822 148.722 144.822 148.722L110.769 159.064Z" fill="#095EAA"/>
<path d="M104.264 92.0316L97.7596 127.655L142.527 122.292L150.561 90.1165L104.264 92.0316Z" fill="#3F3D56"/>
<path d="M105.604 93.3725L100.247 125.165L140.996 120.377L148.84 91.4573L105.604 93.3725Z" fill="white"/>
<path d="M99.2903 128.038L97.7597 127.655L96.9946 129.187L109.239 163.278L110.39 162.837L110.769 160.596L99.2903 128.038Z" fill="#B3B3B3"/>
<path d="M97.7596 127.271L110.004 162.894L156.301 156L142.527 122.292L97.7596 127.271Z" fill="#D0CDE1"/>
<path d="M103.882 126.122V128.038L137.935 124.207L137.552 122.292L103.882 126.122Z" fill="#3F3D56"/>
<path d="M104.647 129.953L110.004 144.891L144.822 140.678L138.7 126.505L104.647 129.953Z" fill="#3F3D56"/>
<path d="M148.266 151.02L147.118 147.956C147.118 147.956 138.318 132.634 133.726 135.698C129.135 138.763 143.292 153.701 143.292 153.701H147.883L148.266 151.02Z" fill="#A0616A"/>
<path d="M119.187 153.318L118.039 148.722C118.039 148.722 114.978 134.549 120.334 135.315C125.691 136.081 127.222 149.488 127.222 149.488L126.839 152.552L119.187 153.318Z" fill="#A0616A"/>
<path d="M128.369 151.403C128.369 151.403 118.421 149.871 118.039 152.169C117.656 154.467 115.743 188.941 125.308 190.09C134.874 191.24 182.319 196.219 177.345 184.345C172.371 172.47 164.718 174.003 164.718 174.003L132.196 177.45L128.369 151.403Z" fill="#095EAA"/>
<path d="M158.405 155.808L148.266 148.722L141.57 153.893L149.988 163.086L158.405 155.808Z" fill="#095EAA"/>
<path opacity="0.2" d="M131.239 162.703L132.769 177.259L159.171 175.727L136.213 175.344L131.239 162.703Z" fill="black"/>
<path d="M209.766 179.607C220.331 179.607 228.897 171.032 228.897 160.455C228.897 149.878 220.331 141.303 209.766 141.303C199.2 141.303 190.635 149.878 190.635 160.455C190.635 171.032 199.2 179.607 209.766 179.607Z" fill="#2F2E41"/>
<path d="M111.343 104.48L135.065 103.654L137.361 94.9045L112.873 95.6443L111.343 104.48Z" fill="#0B77D8"/>
<path d="M105.221 109.46L141.187 108.311L141.57 106.779L105.604 108.047L105.221 109.46Z" fill="#E6E6E6"/>
<path d="M104.456 113.291L140.422 112.141L140.805 110.609L104.838 111.877L104.456 113.291Z" fill="#E6E6E6"/>
<path d="M104.073 116.355L140.039 115.206L140.422 113.674L104.456 114.941L104.073 116.355Z" fill="#E6E6E6"/>
</g>
<defs>
<clipPath id="clip0">
<rect width="272" height="200.624" fill="white"/>
</clipPath>
</defs>
</svg>
